<svg xmlns="http://www.w3.org/2000/svg" aria-hidden="true" style="position:absolute;width:0;height:0;overflow:hidden"><defs><symbol id="icon-arrow-down" viewBox="0 0 32 32"><path fill="none" stroke="#fafafa" stroke-width="3.2" d="m24 12-8 8-8-8" style="stroke:var(--color1, #fafafa)"/></symbol><symbol id="icon-arrow-up" viewBox="0 0 32 32"><path fill="none" stroke="#fafafa" stroke-width="3.2" d="m24 20-8-8-8 8" style="stroke:var(--color1, #fafafa)"/></symbol><symbol id="icon-arrow-left" viewBox="0 0 32 32"><path stroke-linecap="round" stroke-linejoin="round" stroke-width="2" d="M26.667 16H5.334M13.333 24l-8-8 8-8"/></symbol><symbol id="icon-arrow-right" viewBox="0 0 32 32"><path fill="none" stroke="#fafafa" stroke-linecap="round" stroke-linejoin="round" stroke-width="2" d="M5.333 16h21.333M18.667 8l8 8-8 8" style="stroke:var(--color1, #fafafa)"/></symbol><symbol id="icon-brush" viewBox="0 0 32 32"><path fill="none" stroke="#fafafa" stroke-linecap="round" stroke-linejoin="round" stroke-width="2.667" d="M17.037 20 12 14.963M2.667 29.333c2.667 0 6.144.456 7.966-1.367a4.668 4.668 0 0 0-6.6-6.6c-1.823 1.822 0 5.3-1.367 7.967z" style="stroke:var(--color1, #fafafa)"/><path fill="none" stroke="#fafafa" stroke-linecap="round" stroke-linejoin="round" stroke-width="2.667" d="M10.667 21.333c-.655-.655-.983-.983-1.168-1.326a2.668 2.668 0 0 1 .05-2.623c.198-.336.538-.651 1.218-1.28L23.924 3.921a2.94 2.94 0 0 1 4.153 4.153L15.894 21.231c-.63.68-.944 1.02-1.28 1.218-.805.475-1.8.495-2.623.05-.343-.185-.671-.513-1.326-1.168z" style="stroke:var(--color1, #fafafa)"/></symbol><symbol id="icon-message" viewBox="0 0 32 32"><path fill="none" stroke="#fafafa" stroke-linecap="round" stroke-linejoin="round" stroke-width="2.667" d="M8.126 14.972A10.66 10.66 0 0 1 8 13.334C8 7.443 12.807 2.667 18.737 2.667s10.737 4.776 10.737 10.667c0 1.331-.245 2.605-.693 3.779-.093.244-.14.366-.161.461s-.029.161-.031.257c-.002.097.011.205.037.42l.537 4.36c.058.472.087.708.009.88a.667.667 0 0 1-.343.335c-.173.075-.409.04-.879-.029l-4.247-.623a2.965 2.965 0 0 0-.434-.048c-.1.001-.169.008-.267.028s-.225.068-.477.163a10.78 10.78 0 0 1-3.787.683c-.558 0-1.105-.042-1.64-.124m-6.923 5.457c3.953 0 7.158-3.283 7.158-7.333s-3.205-7.333-7.158-7.333c-3.953 0-7.158 3.283-7.158 7.333 0 .814.13 1.597.369 2.329.101.309.152.464.168.57.017.11.02.172.014.284-.006.107-.033.227-.086.469l-.815 3.682 3.993-.545c.218-.03.327-.045.422-.044.1.001.153.006.252.026.093.019.232.067.51.165a6.994 6.994 0 0 0 2.332.398z" style="stroke:var(--color1, #fafafa)"/></symbol><symbol id="icon-time" viewBox="0 0 32 32"><path fill="none" stroke="#fafafa" stroke-linecap="round" stroke-linejoin="round" stroke-width="2.667" d="M24.217 2.667H7.783c-.617 0-1.117.5-1.117 1.117a13.4 13.4 0 0 0 3.925 9.475l1.626 1.626c.161.161.242.242.3.32a1.335 1.335 0 0 1 0 1.594c-.058.077-.139.158-.3.32l-1.626 1.626a13.4 13.4 0 0 0-3.925 9.475c0 .617.5 1.117 1.117 1.117h16.434c.617 0 1.117-.5 1.117-1.117a13.4 13.4 0 0 0-3.925-9.475l-1.626-1.626c-.161-.161-.242-.242-.3-.32a1.332 1.332 0 0 1 0-1.594c.058-.077.139-.158.3-.32l1.626-1.626a13.4 13.4 0 0 0 3.925-9.475c0-.617-.5-1.117-1.117-1.117z" style="stroke:var(--color1, #fafafa)"/></symbol><symbol id="icon-user" viewBox="0 0 32 32"><path fill="none" stroke="#fafafa" stroke-linecap="round" stroke-linejoin="round" stroke-width="2.667" d="M26.667 28c0-1.861 0-2.791-.23-3.548a5.333 5.333 0 0 0-3.556-3.556c-.757-.23-1.687-.23-3.548-.23h-6.667c-1.861 0-2.791 0-3.548.23a5.335 5.335 0 0 0-3.556 3.556c-.23.757-.23 1.687-.23 3.548M16 16a6 6 0 1 0 0-12 6 6 0 0 0 0 12z" style="stroke:var(--color1, #fafafa)"/></symbol><symbol id="icon-burger-menu" viewBox="0 0 32 32"><path fill="none" stroke="#fafafa" stroke-linecap="round" stroke-linejoin="round" stroke-width="2.286" d="M4 11.333h24M4 20.667h24" style="stroke:var(--color1, #fafafa)"/></symbol><symbol id="icon-x" viewBox="0 0 32 32"><path fill="none" stroke="#fafafa" stroke-linecap="round" stroke-linejoin="round" stroke-width="2.286" d="M24 8 8 24M8 8l16 16" style="stroke:var(--color1, #fafafa)"/></symbol><symbol id="icon-jefferson" viewBox="0 0 141 32"><path fill="#fafafa" d="m133.416 15.158.234-4.936-4.313 2.685L128 10.688l4.58-2.251L128 6.186l1.337-2.251 4.313 2.685-.234-4.936h2.641l-.234 4.936 4.313-2.685 1.337 2.251-4.58 2.251 4.58 2.251-1.337 2.219-4.313-2.685.234 4.936h-2.641zM112.987 14.412v10.851h-3.513V6.966h3.415v3.011h.244a5.09 5.09 0 0 1 1.936-2.357c.878-.589 2.006-.884 3.383-.884 1.236 0 2.315.262 3.236.786.933.513 1.654 1.282 2.163 2.308.52 1.026.781 2.297.781 3.813v11.62h-3.513V14.069c0-1.32-.347-2.357-1.041-3.11-.694-.764-1.637-1.146-2.83-1.146-.813 0-1.545.185-2.196.556-.64.36-1.144.878-1.512 1.555s-.553 1.506-.553 2.488zM99.36 25.263c-1.69 0-3.17-.385-4.441-1.155-1.26-.77-2.239-1.85-2.939-3.24-.689-1.39-1.033-3.005-1.033-4.844 0-1.861.344-3.486 1.033-4.876.7-1.401 1.679-2.486 2.939-3.256 1.27-.77 2.75-1.155 4.441-1.155 1.701 0 3.181.385 4.441 1.155s2.239 1.855 2.939 3.256c.7 1.39 1.05 3.016 1.05 4.876 0 1.839-.35 3.454-1.05 4.844s-1.679 2.47-2.939 3.24c-1.259.77-2.74 1.155-4.441 1.155zm0-2.935c1.109 0 2.024-.289 2.745-.866s1.254-1.342 1.599-2.294c.355-.963.533-2.01.533-3.144 0-1.155-.178-2.214-.533-3.176-.344-.962-.877-1.732-1.599-2.31s-1.636-.866-2.745-.866c-1.098 0-2.008.289-2.729.866-.711.577-1.243 1.347-1.599 2.31s-.533 2.021-.533 3.176c0 1.134.178 2.181.533 3.144.355.952.888 1.716 1.599 2.294.721.577 1.631.866 2.729.866zM88.896 11.356l-3.289.545c-.212-.599-.606-1.15-1.185-1.652-.568-.503-1.419-.754-2.554-.754-1.024 0-1.881.225-2.571.674-.679.438-1.018 1-1.018 1.684 0 .599.228 1.085.684 1.46.467.374 1.207.674 2.22.898l2.988.642c1.703.374 2.977.962 3.823 1.764s1.269 1.829 1.269 3.08c0 1.08-.323 2.042-.968 2.887-.645.834-1.541 1.492-2.688 1.973-1.146.47-2.471.706-3.973.706-2.092 0-3.795-.433-5.108-1.299s-2.12-2.085-2.421-3.657l3.489-.513c.222.877.673 1.54 1.352 1.989.69.449 1.58.674 2.671.674 1.18 0 2.126-.241 2.838-.722.723-.481 1.085-1.064 1.085-1.748 0-1.133-.879-1.898-2.637-2.294l-3.155-.674c-1.747-.385-3.038-.989-3.873-1.813-.824-.834-1.235-1.882-1.235-3.144 0-1.059.306-1.989.918-2.791.623-.802 1.475-1.422 2.554-1.861 1.091-.449 2.331-.674 3.723-.674 2.026 0 3.611.422 4.758 1.267a5.984 5.984 0 0 1 2.304 3.352zM64 25.263V6.998h3.538v2.924h.203c.35-.98.959-1.754 1.828-2.32.88-.577 1.873-.866 2.979-.866.226 0 .491.011.795.033.316.011.57.027.762.049v3.398c-.147-.044-.412-.087-.796-.131a9.647 9.647 0 0 0-1.134-.065c-.869 0-1.648.18-2.336.539a4.08 4.08 0 0 0-1.608 1.454c-.384.61-.576 1.318-.576 2.124v11.126h-3.656zM54.344 25.263c-1.82 0-3.395-.38-4.726-1.139s-2.358-1.829-3.079-3.208c-.71-1.39-1.065-3.01-1.065-4.86 0-1.839.349-3.459 1.048-4.86.71-1.401 1.703-2.492 2.979-3.272 1.287-.791 2.796-1.187 4.527-1.187 1.054 0 2.075.166 3.062.497s1.875.855 2.663 1.572c.788.716 1.409 1.647 1.864 2.791.466 1.144.699 2.524.699 4.138v1.251H47.521v-2.615h12.931l-1.681.866c0-1.101-.178-2.075-.533-2.919s-.888-1.502-1.598-1.973c-.699-.481-1.57-.722-2.613-.722s-1.936.241-2.68.722c-.732.481-1.292 1.117-1.681 1.909s-.582 1.657-.582 2.598v1.78c0 1.23.222 2.272.666 3.128s1.06 1.508 1.847 1.957c.799.449 1.725.674 2.779.674.688 0 1.309-.096 1.864-.289.566-.192 1.054-.481 1.464-.866s.721-.861.932-1.428l3.428.626c-.277.963-.766 1.807-1.465 2.534s-1.581 1.294-2.646 1.7c-1.054.396-2.258.594-3.611.594zM46.213 7.158v2.834H35.369V7.158h10.844zm-7.889 18.105V5.052c0-1.123.264-2.057.791-2.802A4.87 4.87 0 0 1 41.212.566a6.957 6.957 0 0 1 2.801-.567c.767 0 1.421.059 1.959.178s.934.221 1.186.308l-.894 2.85a10.008 10.008 0 0 0-.67-.178 4.259 4.259 0 0 0-.997-.097c-.905 0-1.558.216-1.959.648-.401.421-.601 1.036-.601 1.846v19.709h-3.712z" style="fill:var(--color1, #fafafa)"/><path fill="#fafafa" d="M36.107 7.158v2.834H25.263V7.158h10.844zm-7.888 18.105V5.052c0-1.123.264-2.057.791-2.802A4.87 4.87 0 0 1 31.107.566a6.957 6.957 0 0 1 2.801-.567c.767 0 1.421.059 1.959.178s.934.221 1.186.308l-.894 2.85a10.008 10.008 0 0 0-.67-.178 4.259 4.259 0 0 0-.997-.097c-.905 0-1.558.216-1.959.648-.401.421-.601 1.036-.601 1.846v19.709H28.22zM17.291 25.263c-1.82 0-3.395-.38-4.726-1.139s-2.358-1.829-3.079-3.208c-.71-1.39-1.065-3.01-1.065-4.86 0-1.839.35-3.459 1.048-4.86.71-1.401 1.703-2.492 2.979-3.272 1.287-.791 2.796-1.187 4.527-1.187 1.054 0 2.075.166 3.062.497s1.875.855 2.663 1.572c.788.716 1.409 1.647 1.864 2.791.466 1.144.699 2.524.699 4.138v1.251H10.468v-2.615h12.931l-1.681.866c0-1.101-.178-2.075-.533-2.919s-.888-1.502-1.598-1.973c-.699-.481-1.57-.722-2.613-.722s-1.936.241-2.68.722c-.732.481-1.293 1.117-1.681 1.909s-.582 1.657-.582 2.598v1.78c0 1.23.222 2.272.666 3.128s1.06 1.508 1.847 1.957c.799.449 1.725.674 2.779.674.688 0 1.309-.096 1.864-.289.566-.192 1.054-.481 1.464-.866s.721-.861.932-1.428l3.428.626c-.277.963-.766 1.807-1.465 2.534s-1.581 1.294-2.646 1.7c-1.054.396-2.258.594-3.611.594zM2.878 7.012h3.416v19.376c.011 1.215-.2 2.24-.633 3.075s-1.065 1.464-1.898 1.887c-.833.434-1.856.651-3.068.651h-.696v-3.042h.553c.822 0 1.413-.222 1.771-.667s.543-1.085.554-1.92V7.012zM4.57 4.214c-.601 0-1.112-.206-1.534-.618s-.633-.906-.633-1.48c0-.586.211-1.085.633-1.497S3.969.001 4.57.001c.59 0 1.096.206 1.518.618.432.412.648.911.648 1.497 0 .575-.216 1.068-.648 1.48a2.096 2.096 0 0 1-1.518.618z" style="fill:var(--color1, #fafafa)"/></symbol></defs></svg>